<svg width="49" height="50" viewBox="0 0 49 50" fill="none" xmlns="http://www.w3.org/2000/svg">
<path d="M41.9177 39.7273L9.43501 7.2446C8.8373 6.64689 7.86717 6.64698 7.26955 7.2446C6.67184 7.84231 6.67193 8.81244 7.26955 9.41006L39.7522 41.8927C40.3498 42.4904 41.32 42.4904 41.9177 41.8927C42.5154 41.295 42.5153 40.3249 41.9177 39.7273Z" fill="white"/>
<path d="M39.7519 7.28872L7.26925 39.7714C6.67155 40.3691 6.67164 41.3392 7.26925 41.9369C7.86687 42.5345 8.83709 42.5345 9.43471 41.9369L41.9174 9.45417C42.5151 8.85647 42.515 7.88633 41.9174 7.28872C41.3198 6.6911 40.3496 6.69101 39.7519 7.28872Z" fill="white"/>
</svg>
