<svg width="49" height="35" viewBox="0 0 49 35" fill="none" xmlns="http://www.w3.org/2000/svg">
<path d="M1.53121 3.80949H47.4687C48.3139 3.80949 48.9999 3.12344 48.9999 2.27828C48.9999 1.433 48.3138 0.74707 47.4687 0.74707H1.53121C0.686053 0.74707 0 1.433 0 2.27828C0 3.12356 0.686053 3.80949 1.53121 3.80949Z" fill="white"/>
<path d="M47.4687 16.0596H1.53121C0.685926 16.0596 0 16.7456 0 17.5908C0 18.4359 0.686053 19.122 1.53121 19.122H47.4687C48.3139 19.122 48.9999 18.4359 48.9999 17.5908C48.9999 16.7456 48.3139 16.0596 47.4687 16.0596Z" fill="white"/>
<path d="M47.4687 31.3721H1.53121C0.685926 31.3721 0 32.0581 0 32.9033C0 33.7486 0.686053 34.4345 1.53121 34.4345H47.4687C48.3139 34.4345 48.9999 33.7484 48.9999 32.9033C49 32.058 48.3139 31.3721 47.4687 31.3721Z" fill="white"/>
</svg>
