<svg width="90" height="347" viewBox="0 0 90 347" fill="none" xmlns="http://www.w3.org/2000/svg">
<g opacity="0.4">
<path d="M83.3104 2.2382V3.73033H81.3578V5.96854H80.0561V3.73033H78.1035V2.2382H80.0561V0H81.3578V2.2382H83.3104Z" fill="white" fill-opacity="0.5"/>
<path d="M83.3104 20.1438V21.6359H81.3578V23.8741H80.0561V21.6359H78.1035V20.1438H80.0561V17.9056H81.3578V20.1438H83.3104Z" fill="white" fill-opacity="0.5"/>
<path d="M83.3104 38.0494V39.5416H81.3578V41.7798H80.0561V39.5416H78.1035V38.0494H80.0561V35.8112H81.3578V38.0494H83.3104Z" fill="white" fill-opacity="0.5"/>
<path d="M83.3104 55.9549V57.4471H81.3578V59.6853H80.0561V57.4471H78.1035V55.9549H80.0561V53.7167H81.3578V55.9549H83.3104Z" fill="white" fill-opacity="0.5"/>
<path d="M83.3104 73.8606V75.3527H81.3578V77.5909H80.0561V75.3527H78.1035V73.8606H80.0561V71.6224H81.3578V73.8606H83.3104Z" fill="white" fill-opacity="0.5"/>
<path d="M83.3104 91.7661V93.2583H81.3578V95.4965H80.0561V93.2583H78.1035V91.7661H80.0561V89.528H81.3578V91.7661H83.3104Z" fill="white" fill-opacity="0.5"/>
<path d="M83.3104 109.672V111.164H81.3578V113.402H80.0561V111.164H78.1035V109.672H80.0561V107.434H81.3578V109.672H83.3104Z" fill="white" fill-opacity="0.5"/>
<path d="M83.3104 127.577V129.069H81.3578V131.308H80.0561V129.069H78.1035V127.577H80.0561V125.339H81.3578V127.577H83.3104Z" fill="white" fill-opacity="0.5"/>
<path d="M83.3104 145.483V146.975H81.3578V149.213H80.0561V146.975H78.1035V145.483H80.0561V143.245H81.3578V145.483H83.3104Z" fill="white" fill-opacity="0.5"/>
<path d="M83.3104 163.389V164.881H81.3578V167.119H80.0561V164.881H78.1035V163.389H80.0561V161.15H81.3578V163.389H83.3104Z" fill="white" fill-opacity="0.5"/>
<path d="M83.3104 181.294V182.786H81.3578V185.025H80.0561V182.786H78.1035V181.294H80.0561V179.056H81.3578V181.294H83.3104Z" fill="white" fill-opacity="0.5"/>
<path d="M83.3104 199.2V200.692H81.3578V202.93H80.0561V200.692H78.1035V199.2H80.0561V196.962H81.3578V199.2H83.3104Z" fill="white" fill-opacity="0.5"/>
<path d="M83.3104 217.105V218.597H81.3578V220.836H80.0561V218.597H78.1035V217.105H80.0561V214.867H81.3578V217.105H83.3104Z" fill="white" fill-opacity="0.5"/>
<path d="M83.3104 235.011V236.503H81.3578V238.741H80.0561V236.503H78.1035V235.011H80.0561V232.773H81.3578V235.011H83.3104Z" fill="white" fill-opacity="0.5"/>
<path d="M83.3104 252.916V254.409H81.3578V256.647H80.0561V254.409H78.1035V252.916H80.0561V250.678H81.3578V252.916H83.3104Z" fill="white" fill-opacity="0.5"/>
<path d="M83.3104 270.822V272.314H81.3578V274.552H80.0561V272.314H78.1035V270.822H80.0561V268.584H81.3578V270.822H83.3104Z" fill="white" fill-opacity="0.5"/>
<path d="M83.3104 288.728V290.22H81.3578V292.458H80.0561V290.22H78.1035V288.728H80.0561V286.489H81.3578V288.728H83.3104Z" fill="white" fill-opacity="0.5"/>
<path d="M83.3104 306.633V308.125H81.3578V310.364H80.0561V308.125H78.1035V306.633H80.0561V304.395H81.3578V306.633H83.3104Z" fill="white" fill-opacity="0.5"/>
<path d="M83.3104 324.539V326.031H81.3578V328.269H80.0561V326.031H78.1035V324.539H80.0561V322.301H81.3578V324.539H83.3104Z" fill="white" fill-opacity="0.5"/>
<path d="M83.3104 342.444V343.937H81.3578V346.175H80.0561V343.937H78.1035V342.444H80.0561V340.206H81.3578V342.444H83.3104Z" fill="white" fill-opacity="0.5"/>
<path d="M67.6898 2.2382V3.73033H65.7372V5.96854H64.4355V3.73033H62.4829V2.2382H64.4355V0H65.7372V2.2382H67.6898Z" fill="white" fill-opacity="0.5"/>
<path d="M67.6898 20.1438V21.6359H65.7372V23.8741H64.4355V21.6359H62.4829V20.1438H64.4355V17.9056H65.7372V20.1438H67.6898Z" fill="white" fill-opacity="0.5"/>
<path d="M67.6898 38.0494V39.5416H65.7372V41.7798H64.4355V39.5416H62.4829V38.0494H64.4355V35.8112H65.7372V38.0494H67.6898Z" fill="white" fill-opacity="0.5"/>
<path d="M67.6898 55.9549V57.4471H65.7372V59.6853H64.4355V57.4471H62.4829V55.9549H64.4355V53.7167H65.7372V55.9549H67.6898Z" fill="white" fill-opacity="0.5"/>
<path d="M67.6898 73.8606V75.3527H65.7372V77.5909H64.4355V75.3527H62.4829V73.8606H64.4355V71.6224H65.7372V73.8606H67.6898Z" fill="white" fill-opacity="0.5"/>
<path d="M67.6898 91.7661V93.2583H65.7372V95.4965H64.4355V93.2583H62.4829V91.7661H64.4355V89.528H65.7372V91.7661H67.6898Z" fill="white" fill-opacity="0.5"/>
<path d="M67.6898 109.672V111.164H65.7372V113.402H64.4355V111.164H62.4829V109.672H64.4355V107.434H65.7372V109.672H67.6898Z" fill="white" fill-opacity="0.5"/>
<path d="M67.6898 127.577V129.069H65.7372V131.308H64.4355V129.069H62.4829V127.577H64.4355V125.339H65.7372V127.577H67.6898Z" fill="white" fill-opacity="0.5"/>
<path d="M67.6898 145.483V146.975H65.7372V149.213H64.4355V146.975H62.4829V145.483H64.4355V143.245H65.7372V145.483H67.6898Z" fill="white" fill-opacity="0.5"/>
<path d="M67.6898 163.389V164.881H65.7372V167.119H64.4355V164.881H62.4829V163.389H64.4355V161.15H65.7372V163.389H67.6898Z" fill="white" fill-opacity="0.5"/>
<path d="M67.6898 181.294V182.786H65.7372V185.025H64.4355V182.786H62.4829V181.294H64.4355V179.056H65.7372V181.294H67.6898Z" fill="white" fill-opacity="0.5"/>
<path d="M67.6898 199.2V200.692H65.7372V202.93H64.4355V200.692H62.4829V199.2H64.4355V196.962H65.7372V199.2H67.6898Z" fill="white" fill-opacity="0.5"/>
<path d="M67.6898 217.105V218.597H65.7372V220.836H64.4355V218.597H62.4829V217.105H64.4355V214.867H65.7372V217.105H67.6898Z" fill="white" fill-opacity="0.5"/>
<path d="M67.6898 235.011V236.503H65.7372V238.741H64.4355V236.503H62.4829V235.011H64.4355V232.773H65.7372V235.011H67.6898Z" fill="white" fill-opacity="0.5"/>
<path d="M67.6898 252.916V254.409H65.7372V256.647H64.4355V254.409H62.4829V252.916H64.4355V250.678H65.7372V252.916H67.6898Z" fill="white" fill-opacity="0.5"/>
<path d="M67.6898 270.822V272.314H65.7372V274.552H64.4355V272.314H62.4829V270.822H64.4355V268.584H65.7372V270.822H67.6898Z" fill="white" fill-opacity="0.5"/>
<path d="M67.6898 288.728V290.22H65.7372V292.458H64.4355V290.22H62.4829V288.728H64.4355V286.489H65.7372V288.728H67.6898Z" fill="white" fill-opacity="0.5"/>
<path d="M67.6898 306.633V308.125H65.7372V310.364H64.4355V308.125H62.4829V306.633H64.4355V304.395H65.7372V306.633H67.6898Z" fill="white" fill-opacity="0.5"/>
<path d="M67.6898 324.539V326.031H65.7372V328.269H64.4355V326.031H62.4829V324.539H64.4355V322.301H65.7372V324.539H67.6898Z" fill="white" fill-opacity="0.5"/>
<path d="M67.6898 342.444V343.937H65.7372V346.175H64.4355V343.937H62.4829V342.444H64.4355V340.206H65.7372V342.444H67.6898Z" fill="white" fill-opacity="0.5"/>
<path d="M52.0692 2.2382V3.73033H50.1166V5.96854H48.8149V3.73033H46.8623V2.2382H48.8149V0H50.1166V2.2382H52.0692Z" fill="white" fill-opacity="0.5"/>
<path d="M52.0692 20.1438V21.6359H50.1166V23.8741H48.8149V21.6359H46.8623V20.1438H48.8149V17.9056H50.1166V20.1438H52.0692Z" fill="white" fill-opacity="0.5"/>
<path d="M52.0692 38.0494V39.5416H50.1166V41.7798H48.8149V39.5416H46.8623V38.0494H48.8149V35.8112H50.1166V38.0494H52.0692Z" fill="white" fill-opacity="0.5"/>
<path d="M52.0692 55.9549V57.4471H50.1166V59.6853H48.8149V57.4471H46.8623V55.9549H48.8149V53.7167H50.1166V55.9549H52.0692Z" fill="white" fill-opacity="0.5"/>
<path d="M52.0692 73.8606V75.3527H50.1166V77.5909H48.8149V75.3527H46.8623V73.8606H48.8149V71.6224H50.1166V73.8606H52.0692Z" fill="white" fill-opacity="0.5"/>
<path d="M52.0692 91.7661V93.2583H50.1166V95.4965H48.8149V93.2583H46.8623V91.7661H48.8149V89.528H50.1166V91.7661H52.0692Z" fill="white" fill-opacity="0.5"/>
<path d="M52.0692 109.672V111.164H50.1166V113.402H48.8149V111.164H46.8623V109.672H48.8149V107.434H50.1166V109.672H52.0692Z" fill="white" fill-opacity="0.5"/>
<path d="M52.0692 127.577V129.069H50.1166V131.308H48.8149V129.069H46.8623V127.577H48.8149V125.339H50.1166V127.577H52.0692Z" fill="white" fill-opacity="0.5"/>
<path d="M52.0692 145.483V146.975H50.1166V149.213H48.8149V146.975H46.8623V145.483H48.8149V143.245H50.1166V145.483H52.0692Z" fill="white" fill-opacity="0.5"/>
<path d="M52.0692 163.389V164.881H50.1166V167.119H48.8149V164.881H46.8623V163.389H48.8149V161.15H50.1166V163.389H52.0692Z" fill="white" fill-opacity="0.5"/>
<path d="M52.0692 181.294V182.786H50.1166V185.025H48.8149V182.786H46.8623V181.294H48.8149V179.056H50.1166V181.294H52.0692Z" fill="white" fill-opacity="0.5"/>
<path d="M52.0692 199.2V200.692H50.1166V202.93H48.8149V200.692H46.8623V199.2H48.8149V196.962H50.1166V199.2H52.0692Z" fill="white" fill-opacity="0.5"/>
<path d="M52.0692 217.105V218.597H50.1166V220.836H48.8149V218.597H46.8623V217.105H48.8149V214.867H50.1166V217.105H52.0692Z" fill="white" fill-opacity="0.5"/>
<path d="M52.0692 235.011V236.503H50.1166V238.741H48.8149V236.503H46.8623V235.011H48.8149V232.773H50.1166V235.011H52.0692Z" fill="white" fill-opacity="0.5"/>
<path d="M52.0692 252.916V254.409H50.1166V256.647H48.8149V254.409H46.8623V252.916H48.8149V250.678H50.1166V252.916H52.0692Z" fill="white" fill-opacity="0.5"/>
<path d="M52.0692 270.822V272.314H50.1166V274.552H48.8149V272.314H46.8623V270.822H48.8149V268.584H50.1166V270.822H52.0692Z" fill="white" fill-opacity="0.5"/>
<path d="M52.0692 288.728V290.22H50.1166V292.458H48.8149V290.22H46.8623V288.728H48.8149V286.489H50.1166V288.728H52.0692Z" fill="white" fill-opacity="0.5"/>
<path d="M52.0692 306.633V308.125H50.1166V310.364H48.8149V308.125H46.8623V306.633H48.8149V304.395H50.1166V306.633H52.0692Z" fill="white" fill-opacity="0.5"/>
<path d="M52.0692 324.539V326.031H50.1166V328.269H48.8149V326.031H46.8623V324.539H48.8149V322.301H50.1166V324.539H52.0692Z" fill="white" fill-opacity="0.5"/>
<path d="M52.0692 342.444V343.937H50.1166V346.175H48.8149V343.937H46.8623V342.444H48.8149V340.206H50.1166V342.444H52.0692Z" fill="white" fill-opacity="0.5"/>
<path d="M36.4481 2.2382V3.73033H34.4955V5.96854H33.1938V3.73033H31.2412V2.2382H33.1938V0H34.4955V2.2382H36.4481Z" fill="white" fill-opacity="0.5"/>
<path d="M36.4481 20.1438V21.6359H34.4955V23.8741H33.1938V21.6359H31.2412V20.1438H33.1938V17.9056H34.4955V20.1438H36.4481Z" fill="white" fill-opacity="0.5"/>
<path d="M36.4481 38.0494V39.5416H34.4955V41.7798H33.1938V39.5416H31.2412V38.0494H33.1938V35.8112H34.4955V38.0494H36.4481Z" fill="white" fill-opacity="0.5"/>
<path d="M36.4481 55.9549V57.4471H34.4955V59.6853H33.1938V57.4471H31.2412V55.9549H33.1938V53.7167H34.4955V55.9549H36.4481Z" fill="white" fill-opacity="0.5"/>
<path d="M36.4481 73.8606V75.3527H34.4955V77.5909H33.1938V75.3527H31.2412V73.8606H33.1938V71.6224H34.4955V73.8606H36.4481Z" fill="white" fill-opacity="0.5"/>
<path d="M36.4481 91.7661V93.2583H34.4955V95.4965H33.1938V93.2583H31.2412V91.7661H33.1938V89.528H34.4955V91.7661H36.4481Z" fill="white" fill-opacity="0.5"/>
<path d="M36.4481 109.672V111.164H34.4955V113.402H33.1938V111.164H31.2412V109.672H33.1938V107.434H34.4955V109.672H36.4481Z" fill="white" fill-opacity="0.5"/>
<path d="M36.4481 127.577V129.069H34.4955V131.308H33.1938V129.069H31.2412V127.577H33.1938V125.339H34.4955V127.577H36.4481Z" fill="white" fill-opacity="0.5"/>
<path d="M36.4481 145.483V146.975H34.4955V149.213H33.1938V146.975H31.2412V145.483H33.1938V143.245H34.4955V145.483H36.4481Z" fill="white" fill-opacity="0.5"/>
<path d="M36.4481 163.389V164.881H34.4955V167.119H33.1938V164.881H31.2412V163.389H33.1938V161.15H34.4955V163.389H36.4481Z" fill="white" fill-opacity="0.5"/>
<path d="M36.4481 181.294V182.786H34.4955V185.025H33.1938V182.786H31.2412V181.294H33.1938V179.056H34.4955V181.294H36.4481Z" fill="white" fill-opacity="0.5"/>
<path d="M36.4481 199.2V200.692H34.4955V202.93H33.1938V200.692H31.2412V199.2H33.1938V196.962H34.4955V199.2H36.4481Z" fill="white" fill-opacity="0.5"/>
<path d="M36.4481 217.105V218.597H34.4955V220.836H33.1938V218.597H31.2412V217.105H33.1938V214.867H34.4955V217.105H36.4481Z" fill="white" fill-opacity="0.5"/>
<path d="M36.4481 235.011V236.503H34.4955V238.741H33.1938V236.503H31.2412V235.011H33.1938V232.773H34.4955V235.011H36.4481Z" fill="white" fill-opacity="0.5"/>
<path d="M36.4481 252.916V254.409H34.4955V256.647H33.1938V254.409H31.2412V252.916H33.1938V250.678H34.4955V252.916H36.4481Z" fill="white" fill-opacity="0.5"/>
<path d="M36.4481 270.822V272.314H34.4955V274.552H33.1938V272.314H31.2412V270.822H33.1938V268.584H34.4955V270.822H36.4481Z" fill="white" fill-opacity="0.5"/>
<path d="M36.4481 288.728V290.22H34.4955V292.458H33.1938V290.22H31.2412V288.728H33.1938V286.489H34.4955V288.728H36.4481Z" fill="white" fill-opacity="0.5"/>
<path d="M36.4481 306.633V308.125H34.4955V310.364H33.1938V308.125H31.2412V306.633H33.1938V304.395H34.4955V306.633H36.4481Z" fill="white" fill-opacity="0.5"/>
<path d="M36.4481 324.539V326.031H34.4955V328.269H33.1938V326.031H31.2412V324.539H33.1938V322.301H34.4955V324.539H36.4481Z" fill="white" fill-opacity="0.5"/>
<path d="M36.4481 342.444V343.937H34.4955V346.175H33.1938V343.937H31.2412V342.444H33.1938V340.206H34.4955V342.444H36.4481Z" fill="white" fill-opacity="0.5"/>
<path d="M20.8275 2.2382V3.73033H18.8749V5.96854H17.5732V3.73033H15.6206V2.2382H17.5732V0H18.8749V2.2382H20.8275Z" fill="white" fill-opacity="0.5"/>
<path d="M20.8275 20.1438V21.6359H18.8749V23.8741H17.5732V21.6359H15.6206V20.1438H17.5732V17.9056H18.8749V20.1438H20.8275Z" fill="white" fill-opacity="0.5"/>
<path d="M20.8275 38.0494V39.5416H18.8749V41.7798H17.5732V39.5416H15.6206V38.0494H17.5732V35.8112H18.8749V38.0494H20.8275Z" fill="white" fill-opacity="0.5"/>
<path d="M20.8275 55.9549V57.4471H18.8749V59.6853H17.5732V57.4471H15.6206V55.9549H17.5732V53.7167H18.8749V55.9549H20.8275Z" fill="white" fill-opacity="0.5"/>
<path d="M20.8275 73.8606V75.3527H18.8749V77.5909H17.5732V75.3527H15.6206V73.8606H17.5732V71.6224H18.8749V73.8606H20.8275Z" fill="white" fill-opacity="0.5"/>
<path d="M20.8275 91.7661V93.2583H18.8749V95.4965H17.5732V93.2583H15.6206V91.7661H17.5732V89.528H18.8749V91.7661H20.8275Z" fill="white" fill-opacity="0.5"/>
<path d="M20.8275 109.672V111.164H18.8749V113.402H17.5732V111.164H15.6206V109.672H17.5732V107.434H18.8749V109.672H20.8275Z" fill="white" fill-opacity="0.5"/>
<path d="M20.8275 127.577V129.069H18.8749V131.308H17.5732V129.069H15.6206V127.577H17.5732V125.339H18.8749V127.577H20.8275Z" fill="white" fill-opacity="0.5"/>
<path d="M20.8275 145.483V146.975H18.8749V149.213H17.5732V146.975H15.6206V145.483H17.5732V143.245H18.8749V145.483H20.8275Z" fill="white" fill-opacity="0.5"/>
<path d="M20.8275 163.389V164.881H18.8749V167.119H17.5732V164.881H15.6206V163.389H17.5732V161.15H18.8749V163.389H20.8275Z" fill="white" fill-opacity="0.5"/>
<path d="M20.8275 181.294V182.786H18.8749V185.025H17.5732V182.786H15.6206V181.294H17.5732V179.056H18.8749V181.294H20.8275Z" fill="white" fill-opacity="0.5"/>
<path d="M20.8275 199.2V200.692H18.8749V202.93H17.5732V200.692H15.6206V199.2H17.5732V196.962H18.8749V199.2H20.8275Z" fill="white" fill-opacity="0.5"/>
<path d="M20.8275 217.105V218.597H18.8749V220.836H17.5732V218.597H15.6206V217.105H17.5732V214.867H18.8749V217.105H20.8275Z" fill="white" fill-opacity="0.5"/>
<path d="M20.8275 235.011V236.503H18.8749V238.741H17.5732V236.503H15.6206V235.011H17.5732V232.773H18.8749V235.011H20.8275Z" fill="white" fill-opacity="0.5"/>
<path d="M20.8275 252.916V254.409H18.8749V256.647H17.5732V254.409H15.6206V252.916H17.5732V250.678H18.8749V252.916H20.8275Z" fill="white" fill-opacity="0.5"/>
<path d="M20.8275 270.822V272.314H18.8749V274.552H17.5732V272.314H15.6206V270.822H17.5732V268.584H18.8749V270.822H20.8275Z" fill="white" fill-opacity="0.5"/>
<path d="M20.8275 288.728V290.22H18.8749V292.458H17.5732V290.22H15.6206V288.728H17.5732V286.489H18.8749V288.728H20.8275Z" fill="white" fill-opacity="0.5"/>
<path d="M20.8275 306.633V308.125H18.8749V310.364H17.5732V308.125H15.6206V306.633H17.5732V304.395H18.8749V306.633H20.8275Z" fill="white" fill-opacity="0.5"/>
<path d="M20.8275 324.539V326.031H18.8749V328.269H17.5732V326.031H15.6206V324.539H17.5732V322.301H18.8749V324.539H20.8275Z" fill="white" fill-opacity="0.5"/>
<path d="M20.8275 342.444V343.937H18.8749V346.175H17.5732V343.937H15.6206V342.444H17.5732V340.206H18.8749V342.444H20.8275Z" fill="white" fill-opacity="0.5"/>
<path d="M5.20691 2.2382V3.73033H3.25432V5.96854H1.95259V3.73033H0V2.2382H1.95259V0H3.25432V2.2382H5.20691Z" fill="white" fill-opacity="0.5"/>
<path d="M5.20691 20.1438V21.6359H3.25432V23.8741H1.95259V21.6359H0V20.1438H1.95259V17.9056H3.25432V20.1438H5.20691Z" fill="white" fill-opacity="0.5"/>
<path d="M5.20691 38.0494V39.5416H3.25432V41.7798H1.95259V39.5416H0V38.0494H1.95259V35.8112H3.25432V38.0494H5.20691Z" fill="white" fill-opacity="0.5"/>
<path d="M5.20691 55.9549V57.4471H3.25432V59.6853H1.95259V57.4471H0V55.9549H1.95259V53.7167H3.25432V55.9549H5.20691Z" fill="white" fill-opacity="0.5"/>
<path d="M5.20691 73.8606V75.3527H3.25432V77.5909H1.95259V75.3527H0V73.8606H1.95259V71.6224H3.25432V73.8606H5.20691Z" fill="white" fill-opacity="0.5"/>
<path d="M5.20691 91.7661V93.2583H3.25432V95.4965H1.95259V93.2583H0V91.7661H1.95259V89.528H3.25432V91.7661H5.20691Z" fill="white" fill-opacity="0.5"/>
<path d="M5.20691 109.672V111.164H3.25432V113.402H1.95259V111.164H0V109.672H1.95259V107.434H3.25432V109.672H5.20691Z" fill="white" fill-opacity="0.5"/>
<path d="M5.20691 127.577V129.069H3.25432V131.308H1.95259V129.069H0V127.577H1.95259V125.339H3.25432V127.577H5.20691Z" fill="white" fill-opacity="0.5"/>
<path d="M5.20691 145.483V146.975H3.25432V149.213H1.95259V146.975H0V145.483H1.95259V143.245H3.25432V145.483H5.20691Z" fill="white" fill-opacity="0.5"/>
<path d="M5.20691 163.389V164.881H3.25432V167.119H1.95259V164.881H0V163.389H1.95259V161.15H3.25432V163.389H5.20691Z" fill="white" fill-opacity="0.5"/>
<path d="M5.20691 181.294V182.786H3.25432V185.025H1.95259V182.786H0V181.294H1.95259V179.056H3.25432V181.294H5.20691Z" fill="white" fill-opacity="0.5"/>
<path d="M5.20691 199.2V200.692H3.25432V202.93H1.95259V200.692H0V199.2H1.95259V196.962H3.25432V199.2H5.20691Z" fill="white" fill-opacity="0.5"/>
<path d="M5.20691 217.105V218.597H3.25432V220.836H1.95259V218.597H0V217.105H1.95259V214.867H3.25432V217.105H5.20691Z" fill="white" fill-opacity="0.5"/>
<path d="M5.20691 235.011V236.503H3.25432V238.741H1.95259V236.503H0V235.011H1.95259V232.773H3.25432V235.011H5.20691Z" fill="white" fill-opacity="0.5"/>
<path d="M5.20691 252.916V254.409H3.25432V256.647H1.95259V254.409H0V252.916H1.95259V250.678H3.25432V252.916H5.20691Z" fill="white" fill-opacity="0.5"/>
<path d="M5.20691 270.822V272.314H3.25432V274.552H1.95259V272.314H0V270.822H1.95259V268.584H3.25432V270.822H5.20691Z" fill="white" fill-opacity="0.5"/>
<path d="M5.20691 288.728V290.22H3.25432V292.458H1.95259V290.22H0V288.728H1.95259V286.489H3.25432V288.728H5.20691Z" fill="white" fill-opacity="0.5"/>
<path d="M5.20691 306.633V308.125H3.25432V310.364H1.95259V308.125H0V306.633H1.95259V304.395H3.25432V306.633H5.20691Z" fill="white" fill-opacity="0.5"/>
<path d="M5.20691 324.539V326.031H3.25432V328.269H1.95259V326.031H0V324.539H1.95259V322.301H3.25432V324.539H5.20691Z" fill="white" fill-opacity="0.5"/>
<path d="M5.20691 342.444V343.937H3.25432V346.175H1.95259V343.937H0V342.444H1.95259V340.206H3.25432V342.444H5.20691Z" fill="white" fill-opacity="0.5"/>
</g>
</svg>
