<svg width="127" height="302" viewBox="0 0 127 302" fill="none" xmlns="http://www.w3.org/2000/svg">
<g opacity="0.4">
<path d="M-2.89461 -9.78349e-08L-1.40248 -1.63058e-07L-1.40248 1.95259L0.835724 1.95259L0.835724 3.25432L-1.40248 3.25432L-1.40248 5.20691L-2.89461 5.20691L-2.89461 3.25432L-5.13281 3.25432L-5.13281 1.95259L-2.89461 1.95259L-2.89461 -9.78349e-08Z" fill="white" fill-opacity="0.5"/>
<path d="M15.0109 -9.78349e-08L16.503 -1.63058e-07L16.503 1.95259L18.7412 1.95259L18.7412 3.25432L16.503 3.25432L16.503 5.20691L15.0109 5.20691L15.0109 3.25432L12.7727 3.25432L12.7727 1.95259L15.0109 1.95259L15.0109 -9.78349e-08Z" fill="white" fill-opacity="0.5"/>
<path d="M32.9164 -9.78354e-08L34.4086 -1.63059e-07L34.4086 1.95259L36.6468 1.95259L36.6468 3.25432L34.4086 3.25432L34.4086 5.20691L32.9164 5.20691L32.9164 3.25432L30.6782 3.25432L30.6782 1.95259L32.9164 1.95259L32.9164 -9.78354e-08Z" fill="white" fill-opacity="0.5"/>
<path d="M50.822 -9.78359e-08L52.3141 -1.6306e-07L52.3141 1.95259L54.5523 1.95259L54.5523 3.25432L52.3141 3.25432L52.3141 5.20691L50.822 5.20691L50.822 3.25432L48.5837 3.25432L48.5837 1.95259L50.822 1.95259L50.822 -9.78359e-08Z" fill="white" fill-opacity="0.5"/>
<path d="M68.7277 -9.78364e-08L70.2199 -1.63061e-07L70.2199 1.95259L72.4581 1.95259L72.4581 3.25432L70.2199 3.25432L70.2199 5.20691L68.7277 5.20691L68.7277 3.25432L66.4895 3.25432L66.4895 1.95259L68.7277 1.95259L68.7277 -9.78364e-08Z" fill="white" fill-opacity="0.5"/>
<path d="M86.6332 -9.78349e-08L88.1254 -1.63058e-07L88.1254 1.95259L90.3636 1.95259L90.3636 3.25432L88.1254 3.25432L88.1254 5.20691L86.6332 5.20691L86.6332 3.25432L84.395 3.25432L84.395 1.95259L86.6332 1.95259L86.6332 -9.78349e-08Z" fill="white" fill-opacity="0.5"/>
<path d="M104.539 -9.78344e-08L106.031 -1.63057e-07L106.031 1.95259L108.269 1.95259L108.269 3.25432L106.031 3.25432L106.031 5.20691L104.539 5.20691L104.539 3.25432L102.301 3.25432L102.301 1.95259L104.539 1.95259L104.539 -9.78344e-08Z" fill="white" fill-opacity="0.5"/>
<path d="M122.444 -9.78344e-08L123.937 -1.63057e-07L123.937 1.95259L126.175 1.95259L126.175 3.25432L123.937 3.25432L123.937 5.20691L122.444 5.20691L122.444 3.25432L120.206 3.25432L120.206 1.95259L122.444 1.95259L122.444 -9.78344e-08Z" fill="white" fill-opacity="0.5"/>
<path d="M-2.89461 15.6204L-1.40248 15.6204L-1.40248 17.573L0.835724 17.573L0.835724 18.8747L-1.40248 18.8747L-1.40248 20.8273L-2.89461 20.8273L-2.89461 18.8747L-5.13281 18.8747L-5.13281 17.573L-2.89461 17.573L-2.89461 15.6204Z" fill="white" fill-opacity="0.5"/>
<path d="M15.0109 15.6204L16.503 15.6204L16.503 17.573L18.7412 17.573L18.7412 18.8747L16.503 18.8747L16.503 20.8273L15.0109 20.8273L15.0109 18.8747L12.7727 18.8747L12.7727 17.573L15.0109 17.573L15.0109 15.6204Z" fill="white" fill-opacity="0.5"/>
<path d="M32.9164 15.6204L34.4086 15.6204L34.4086 17.573L36.6468 17.573L36.6468 18.8747L34.4086 18.8747L34.4086 20.8273L32.9164 20.8273L32.9164 18.8747L30.6782 18.8747L30.6782 17.573L32.9164 17.573L32.9164 15.6204Z" fill="white" fill-opacity="0.5"/>
<path d="M50.822 15.6204L52.3141 15.6204L52.3141 17.573L54.5523 17.573L54.5523 18.8747L52.3141 18.8747L52.3141 20.8273L50.822 20.8273L50.822 18.8747L48.5837 18.8747L48.5837 17.573L50.822 17.573L50.822 15.6204Z" fill="white" fill-opacity="0.5"/>
<path d="M68.7277 15.6204L70.2199 15.6204L70.2199 17.573L72.4581 17.573L72.4581 18.8747L70.2199 18.8747L70.2199 20.8273L68.7277 20.8273L68.7277 18.8747L66.4895 18.8747L66.4895 17.573L68.7277 17.573L68.7277 15.6204Z" fill="white" fill-opacity="0.5"/>
<path d="M86.6332 15.6204L88.1254 15.6204L88.1254 17.573L90.3636 17.573L90.3636 18.8747L88.1254 18.8747L88.1254 20.8273L86.6332 20.8273L86.6332 18.8747L84.395 18.8747L84.395 17.573L86.6332 17.573L86.6332 15.6204Z" fill="white" fill-opacity="0.5"/>
<path d="M104.539 15.6204L106.031 15.6204L106.031 17.573L108.269 17.573L108.269 18.8747L106.031 18.8747L106.031 20.8273L104.539 20.8273L104.539 18.8747L102.301 18.8747L102.301 17.573L104.539 17.573L104.539 15.6204Z" fill="white" fill-opacity="0.5"/>
<path d="M122.444 15.6204L123.937 15.6204L123.937 17.573L126.175 17.573L126.175 18.8747L123.937 18.8747L123.937 20.8273L122.444 20.8273L122.444 18.8747L120.206 18.8747L120.206 17.573L122.444 17.573L122.444 15.6204Z" fill="white" fill-opacity="0.5"/>
<path d="M-2.89461 31.2415L-1.40248 31.2415L-1.40248 33.194L0.835724 33.194L0.835724 34.4958L-1.40248 34.4958L-1.40248 36.4484L-2.89461 36.4484L-2.89461 34.4958L-5.13281 34.4958L-5.13281 33.194L-2.89461 33.194L-2.89461 31.2415Z" fill="white" fill-opacity="0.5"/>
<path d="M15.0109 31.2415L16.503 31.2415L16.503 33.194L18.7412 33.194L18.7412 34.4958L16.503 34.4958L16.503 36.4484L15.0109 36.4484L15.0109 34.4958L12.7727 34.4958L12.7727 33.194L15.0109 33.194L15.0109 31.2415Z" fill="white" fill-opacity="0.5"/>
<path d="M32.9164 31.2415L34.4086 31.2415L34.4086 33.194L36.6468 33.194L36.6468 34.4958L34.4086 34.4958L34.4086 36.4484L32.9164 36.4484L32.9164 34.4958L30.6782 34.4958L30.6782 33.194L32.9164 33.194L32.9164 31.2415Z" fill="white" fill-opacity="0.5"/>
<path d="M50.822 31.2415L52.3141 31.2415L52.3141 33.194L54.5523 33.194L54.5523 34.4958L52.3141 34.4958L52.3141 36.4484L50.822 36.4484L50.822 34.4958L48.5837 34.4958L48.5837 33.194L50.822 33.194L50.822 31.2415Z" fill="white" fill-opacity="0.5"/>
<path d="M68.7277 31.2415L70.2199 31.2415L70.2199 33.194L72.4581 33.194L72.4581 34.4958L70.2199 34.4958L70.2199 36.4484L68.7277 36.4484L68.7277 34.4958L66.4895 34.4958L66.4895 33.194L68.7277 33.194L68.7277 31.2415Z" fill="white" fill-opacity="0.5"/>
<path d="M86.6332 31.2415L88.1254 31.2415L88.1254 33.194L90.3636 33.194L90.3636 34.4958L88.1254 34.4958L88.1254 36.4484L86.6332 36.4484L86.6332 34.4958L84.395 34.4958L84.395 33.194L86.6332 33.194L86.6332 31.2415Z" fill="white" fill-opacity="0.5"/>
<path d="M104.539 31.2415L106.031 31.2415L106.031 33.194L108.269 33.194L108.269 34.4958L106.031 34.4958L106.031 36.4484L104.539 36.4484L104.539 34.4958L102.301 34.4958L102.301 33.194L104.539 33.194L104.539 31.2415Z" fill="white" fill-opacity="0.5"/>
<path d="M122.444 31.2415L123.937 31.2415L123.937 33.194L126.175 33.194L126.175 34.4958L123.937 34.4958L123.937 36.4484L122.444 36.4484L122.444 34.4958L120.206 34.4958L120.206 33.194L122.444 33.194L122.444 31.2415Z" fill="white" fill-opacity="0.5"/>
<path d="M-2.89461 46.8618L-1.40248 46.8618L-1.40248 48.8144L0.835724 48.8144L0.835724 50.1161L-1.40248 50.1161L-1.40248 52.0687L-2.89461 52.0687L-2.89461 50.1161L-5.13281 50.1161L-5.13281 48.8144L-2.89461 48.8144L-2.89461 46.8618Z" fill="white" fill-opacity="0.5"/>
<path d="M15.0109 46.8618L16.503 46.8618L16.503 48.8144L18.7412 48.8144L18.7412 50.1161L16.503 50.1161L16.503 52.0687L15.0109 52.0687L15.0109 50.1161L12.7727 50.1161L12.7727 48.8144L15.0109 48.8144L15.0109 46.8618Z" fill="white" fill-opacity="0.5"/>
<path d="M32.9164 46.8618L34.4086 46.8618L34.4086 48.8144L36.6468 48.8144L36.6468 50.1161L34.4086 50.1161L34.4086 52.0687L32.9164 52.0687L32.9164 50.1161L30.6782 50.1161L30.6782 48.8144L32.9164 48.8144L32.9164 46.8618Z" fill="white" fill-opacity="0.5"/>
<path d="M50.822 46.8618L52.3141 46.8618L52.3141 48.8144L54.5523 48.8144L54.5523 50.1161L52.3141 50.1161L52.3141 52.0687L50.822 52.0687L50.822 50.1161L48.5837 50.1161L48.5837 48.8144L50.822 48.8144L50.822 46.8618Z" fill="white" fill-opacity="0.5"/>
<path d="M68.7277 46.8618L70.2199 46.8618L70.2199 48.8144L72.4581 48.8144L72.4581 50.1161L70.2199 50.1161L70.2199 52.0687L68.7277 52.0687L68.7277 50.1161L66.4895 50.1161L66.4895 48.8144L68.7277 48.8144L68.7277 46.8618Z" fill="white" fill-opacity="0.5"/>
<path d="M86.6332 46.8618L88.1254 46.8618L88.1254 48.8144L90.3636 48.8144L90.3636 50.1161L88.1254 50.1161L88.1254 52.0687L86.6332 52.0687L86.6332 50.1161L84.395 50.1161L84.395 48.8144L86.6332 48.8144L86.6332 46.8618Z" fill="white" fill-opacity="0.5"/>
<path d="M104.539 46.8618L106.031 46.8618L106.031 48.8144L108.269 48.8144L108.269 50.1161L106.031 50.1161L106.031 52.0687L104.539 52.0687L104.539 50.1161L102.301 50.1161L102.301 48.8144L104.539 48.8144L104.539 46.8618Z" fill="white" fill-opacity="0.5"/>
<path d="M122.444 46.8618L123.937 46.8618L123.937 48.8144L126.175 48.8144L126.175 50.1161L123.937 50.1161L123.937 52.0687L122.444 52.0687L122.444 50.1161L120.206 50.1161L120.206 48.8144L122.444 48.8144L122.444 46.8618Z" fill="white" fill-opacity="0.5"/>
<path d="M-2.89461 62.4824L-1.40248 62.4824L-1.40248 64.4351L0.835724 64.4351L0.835724 65.7368L-1.40248 65.7368L-1.40248 67.6895L-2.89461 67.6895L-2.89461 65.7368L-5.13281 65.7368L-5.13281 64.4351L-2.89461 64.4351L-2.89461 62.4824Z" fill="white" fill-opacity="0.5"/>
<path d="M15.0109 62.4824L16.503 62.4824L16.503 64.4351L18.7412 64.4351L18.7412 65.7368L16.503 65.7368L16.503 67.6895L15.0109 67.6895L15.0109 65.7368L12.7727 65.7368L12.7727 64.4351L15.0109 64.4351L15.0109 62.4824Z" fill="white" fill-opacity="0.5"/>
<path d="M32.9164 62.4824L34.4086 62.4824L34.4086 64.4351L36.6468 64.4351L36.6468 65.7368L34.4086 65.7368L34.4086 67.6895L32.9164 67.6895L32.9164 65.7368L30.6782 65.7368L30.6782 64.4351L32.9164 64.4351L32.9164 62.4824Z" fill="white" fill-opacity="0.5"/>
<path d="M50.822 62.4824L52.3141 62.4824L52.3141 64.4351L54.5523 64.4351L54.5523 65.7368L52.3141 65.7368L52.3141 67.6895L50.822 67.6895L50.822 65.7368L48.5837 65.7368L48.5837 64.4351L50.822 64.4351L50.822 62.4824Z" fill="white" fill-opacity="0.5"/>
<path d="M68.7277 62.4824L70.2199 62.4824L70.2199 64.4351L72.4581 64.4351L72.4581 65.7368L70.2199 65.7368L70.2199 67.6895L68.7277 67.6895L68.7277 65.7368L66.4895 65.7368L66.4895 64.4351L68.7277 64.4351L68.7277 62.4824Z" fill="white" fill-opacity="0.5"/>
<path d="M86.6332 62.4824L88.1254 62.4824L88.1254 64.4351L90.3636 64.4351L90.3636 65.7368L88.1254 65.7368L88.1254 67.6895L86.6332 67.6895L86.6332 65.7368L84.395 65.7368L84.395 64.4351L86.6332 64.4351L86.6332 62.4824Z" fill="white" fill-opacity="0.5"/>
<path d="M104.539 62.4824L106.031 62.4824L106.031 64.4351L108.269 64.4351L108.269 65.7368L106.031 65.7368L106.031 67.6895L104.539 67.6895L104.539 65.7368L102.301 65.7368L102.301 64.4351L104.539 64.4351L104.539 62.4824Z" fill="white" fill-opacity="0.5"/>
<path d="M122.444 62.4824L123.937 62.4824L123.937 64.4351L126.175 64.4351L126.175 65.7368L123.937 65.7368L123.937 67.6895L122.444 67.6895L122.444 65.7368L120.206 65.7368L120.206 64.4351L122.444 64.4351L122.444 62.4824Z" fill="white" fill-opacity="0.5"/>
<path d="M-2.89461 78.1033L-1.40248 78.1033L-1.40248 80.0558L0.835724 80.0558L0.835724 81.3575L-1.40248 81.3575L-1.40248 83.3101L-2.89461 83.3101L-2.89461 81.3575L-5.13281 81.3575L-5.13281 80.0558L-2.89461 80.0558L-2.89461 78.1033Z" fill="white" fill-opacity="0.5"/>
<path d="M15.0109 78.1033L16.503 78.1033L16.503 80.0558L18.7412 80.0558L18.7412 81.3575L16.503 81.3575L16.503 83.3101L15.0109 83.3101L15.0109 81.3575L12.7727 81.3575L12.7727 80.0558L15.0109 80.0558L15.0109 78.1033Z" fill="white" fill-opacity="0.5"/>
<path d="M32.9164 78.1033L34.4086 78.1033L34.4086 80.0558L36.6468 80.0558L36.6468 81.3575L34.4086 81.3575L34.4086 83.3101L32.9164 83.3101L32.9164 81.3575L30.6782 81.3575L30.6782 80.0558L32.9164 80.0558L32.9164 78.1033Z" fill="white" fill-opacity="0.5"/>
<path d="M50.822 78.1033L52.3141 78.1033L52.3141 80.0558L54.5523 80.0558L54.5523 81.3575L52.3141 81.3575L52.3141 83.3101L50.822 83.3101L50.822 81.3575L48.5837 81.3575L48.5837 80.0558L50.822 80.0558L50.822 78.1033Z" fill="white" fill-opacity="0.5"/>
<path d="M68.7277 78.1033L70.2199 78.1033L70.2199 80.0558L72.4581 80.0558L72.4581 81.3575L70.2199 81.3575L70.2199 83.3101L68.7277 83.3101L68.7277 81.3575L66.4895 81.3575L66.4895 80.0558L68.7277 80.0558L68.7277 78.1033Z" fill="white" fill-opacity="0.5"/>
<path d="M86.6332 78.1033L88.1254 78.1033L88.1254 80.0558L90.3636 80.0558L90.3636 81.3575L88.1254 81.3575L88.1254 83.3101L86.6332 83.3101L86.6332 81.3575L84.395 81.3575L84.395 80.0558L86.6332 80.0558L86.6332 78.1033Z" fill="white" fill-opacity="0.5"/>
<path d="M104.539 78.1033L106.031 78.1033L106.031 80.0558L108.269 80.0558L108.269 81.3575L106.031 81.3575L106.031 83.3101L104.539 83.3101L104.539 81.3575L102.301 81.3575L102.301 80.0558L104.539 80.0558L104.539 78.1033Z" fill="white" fill-opacity="0.5"/>
<path d="M122.444 78.1033L123.937 78.1033L123.937 80.0558L126.175 80.0558L126.175 81.3575L123.937 81.3575L123.937 83.3101L122.444 83.3101L122.444 81.3575L120.206 81.3575L120.206 80.0558L122.444 80.0558L122.444 78.1033Z" fill="white" fill-opacity="0.5"/>
<path d="M-2.89461 93.7239L-1.40248 93.7239L-1.40248 95.6765L0.835724 95.6765L0.835724 96.9782L-1.40248 96.9782L-1.40248 98.9308L-2.89461 98.9308L-2.89461 96.9782L-5.13281 96.9782L-5.13281 95.6765L-2.89461 95.6765L-2.89461 93.7239Z" fill="white" fill-opacity="0.5"/>
<path d="M15.0109 93.7239L16.503 93.7239L16.503 95.6765L18.7412 95.6765L18.7412 96.9782L16.503 96.9782L16.503 98.9308L15.0109 98.9308L15.0109 96.9782L12.7727 96.9782L12.7727 95.6765L15.0109 95.6765L15.0109 93.7239Z" fill="white" fill-opacity="0.5"/>
<path d="M32.9164 93.7239L34.4086 93.7239L34.4086 95.6765L36.6468 95.6765L36.6468 96.9782L34.4086 96.9782L34.4086 98.9308L32.9164 98.9308L32.9164 96.9782L30.6782 96.9782L30.6782 95.6765L32.9164 95.6765L32.9164 93.7239Z" fill="white" fill-opacity="0.5"/>
<path d="M50.822 93.7239L52.3141 93.7239L52.3141 95.6765L54.5523 95.6765L54.5523 96.9782L52.3141 96.9782L52.3141 98.9308L50.822 98.9308L50.822 96.9782L48.5837 96.9782L48.5837 95.6765L50.822 95.6765L50.822 93.7239Z" fill="white" fill-opacity="0.5"/>
<path d="M68.7277 93.7239L70.2199 93.7239L70.2199 95.6765L72.4581 95.6765L72.4581 96.9782L70.2199 96.9782L70.2199 98.9308L68.7277 98.9308L68.7277 96.9782L66.4895 96.9782L66.4895 95.6765L68.7277 95.6765L68.7277 93.7239Z" fill="white" fill-opacity="0.5"/>
<path d="M86.6332 93.7239L88.1254 93.7239L88.1254 95.6765L90.3636 95.6765L90.3636 96.9782L88.1254 96.9782L88.1254 98.9308L86.6332 98.9308L86.6332 96.9782L84.395 96.9782L84.395 95.6765L86.6332 95.6765L86.6332 93.7239Z" fill="white" fill-opacity="0.5"/>
<path d="M104.539 93.7239L106.031 93.7239L106.031 95.6765L108.269 95.6765L108.269 96.9782L106.031 96.9782L106.031 98.9308L104.539 98.9308L104.539 96.9782L102.301 96.9782L102.301 95.6765L104.539 95.6765L104.539 93.7239Z" fill="white" fill-opacity="0.5"/>
<path d="M122.444 93.7239L123.937 93.7239L123.937 95.6765L126.175 95.6765L126.175 96.9782L123.937 96.9782L123.937 98.9308L122.444 98.9308L122.444 96.9782L120.206 96.9782L120.206 95.6765L122.444 95.6765L122.444 93.7239Z" fill="white" fill-opacity="0.5"/>
<path d="M-2.89461 109.345L-1.40248 109.345L-1.40248 111.297L0.835724 111.297L0.835724 112.599L-1.40248 112.599L-1.40248 114.552L-2.89461 114.552L-2.89461 112.599L-5.13281 112.599L-5.13281 111.297L-2.89461 111.297L-2.89461 109.345Z" fill="white" fill-opacity="0.5"/>
<path d="M15.0109 109.345L16.503 109.345L16.503 111.297L18.7412 111.297L18.7412 112.599L16.503 112.599L16.503 114.552L15.0109 114.552L15.0109 112.599L12.7727 112.599L12.7727 111.297L15.0109 111.297L15.0109 109.345Z" fill="white" fill-opacity="0.5"/>
<path d="M32.9164 109.345L34.4086 109.345L34.4086 111.297L36.6468 111.297L36.6468 112.599L34.4086 112.599L34.4086 114.552L32.9164 114.552L32.9164 112.599L30.6782 112.599L30.6782 111.297L32.9164 111.297L32.9164 109.345Z" fill="white" fill-opacity="0.5"/>
<path d="M50.822 109.345L52.3141 109.345L52.3141 111.297L54.5523 111.297L54.5523 112.599L52.3141 112.599L52.3141 114.552L50.822 114.552L50.822 112.599L48.5837 112.599L48.5837 111.297L50.822 111.297L50.822 109.345Z" fill="white" fill-opacity="0.5"/>
<path d="M68.7277 109.345L70.2199 109.345L70.2199 111.297L72.4581 111.297L72.4581 112.599L70.2199 112.599L70.2199 114.552L68.7277 114.552L68.7277 112.599L66.4895 112.599L66.4895 111.297L68.7277 111.297L68.7277 109.345Z" fill="white" fill-opacity="0.5"/>
<path d="M86.6332 109.345L88.1254 109.345L88.1254 111.297L90.3636 111.297L90.3636 112.599L88.1254 112.599L88.1254 114.552L86.6332 114.552L86.6332 112.599L84.395 112.599L84.395 111.297L86.6332 111.297L86.6332 109.345Z" fill="white" fill-opacity="0.5"/>
<path d="M104.539 109.345L106.031 109.345L106.031 111.297L108.269 111.297L108.269 112.599L106.031 112.599L106.031 114.552L104.539 114.552L104.539 112.599L102.301 112.599L102.301 111.297L104.539 111.297L104.539 109.345Z" fill="white" fill-opacity="0.5"/>
<path d="M122.444 109.345L123.937 109.345L123.937 111.297L126.175 111.297L126.175 112.599L123.937 112.599L123.937 114.552L122.444 114.552L122.444 112.599L120.206 112.599L120.206 111.297L122.444 111.297L122.444 109.345Z" fill="white" fill-opacity="0.5"/>
<path d="M-2.89461 124.965L-1.40248 124.965L-1.40248 126.918L0.835724 126.918L0.835724 128.22L-1.40248 128.22L-1.40248 130.172L-2.89461 130.172L-2.89461 128.22L-5.13281 128.22L-5.13281 126.918L-2.89461 126.918L-2.89461 124.965Z" fill="white" fill-opacity="0.5"/>
<path d="M15.0109 124.965L16.503 124.965L16.503 126.918L18.7412 126.918L18.7412 128.22L16.503 128.22L16.503 130.172L15.0109 130.172L15.0109 128.22L12.7727 128.22L12.7727 126.918L15.0109 126.918L15.0109 124.965Z" fill="white" fill-opacity="0.5"/>
<path d="M32.9164 124.965L34.4086 124.965L34.4086 126.918L36.6468 126.918L36.6468 128.22L34.4086 128.22L34.4086 130.172L32.9164 130.172L32.9164 128.22L30.6782 128.22L30.6782 126.918L32.9164 126.918L32.9164 124.965Z" fill="white" fill-opacity="0.5"/>
<path d="M50.822 124.965L52.3141 124.965L52.3141 126.918L54.5523 126.918L54.5523 128.22L52.3141 128.22L52.3141 130.172L50.822 130.172L50.822 128.22L48.5837 128.22L48.5837 126.918L50.822 126.918L50.822 124.965Z" fill="white" fill-opacity="0.5"/>
<path d="M68.7277 124.965L70.2199 124.965L70.2199 126.918L72.4581 126.918L72.4581 128.22L70.2199 128.22L70.2199 130.172L68.7277 130.172L68.7277 128.22L66.4895 128.22L66.4895 126.918L68.7277 126.918L68.7277 124.965Z" fill="white" fill-opacity="0.5"/>
<path d="M86.6332 124.965L88.1254 124.965L88.1254 126.918L90.3636 126.918L90.3636 128.22L88.1254 128.22L88.1254 130.172L86.6332 130.172L86.6332 128.22L84.395 128.22L84.395 126.918L86.6332 126.918L86.6332 124.965Z" fill="white" fill-opacity="0.5"/>
<path d="M104.539 124.965L106.031 124.965L106.031 126.918L108.269 126.918L108.269 128.22L106.031 128.22L106.031 130.172L104.539 130.172L104.539 128.22L102.301 128.22L102.301 126.918L104.539 126.918L104.539 124.965Z" fill="white" fill-opacity="0.5"/>
<path d="M122.444 124.965L123.937 124.965L123.937 126.918L126.175 126.918L126.175 128.22L123.937 128.22L123.937 130.172L122.444 130.172L122.444 128.22L120.206 128.22L120.206 126.918L122.444 126.918L122.444 124.965Z" fill="white" fill-opacity="0.5"/>
<path d="M-2.89461 140.586L-1.40248 140.586L-1.40248 142.539L0.835724 142.539L0.835724 143.84L-1.40248 143.84L-1.40248 145.793L-2.89461 145.793L-2.89461 143.84L-5.13281 143.84L-5.13281 142.539L-2.89461 142.539L-2.89461 140.586Z" fill="white" fill-opacity="0.5"/>
<path d="M15.0109 140.586L16.503 140.586L16.503 142.539L18.7412 142.539L18.7412 143.84L16.503 143.84L16.503 145.793L15.0109 145.793L15.0109 143.84L12.7727 143.84L12.7727 142.539L15.0109 142.539L15.0109 140.586Z" fill="white" fill-opacity="0.5"/>
<path d="M32.9164 140.586L34.4086 140.586L34.4086 142.539L36.6468 142.539L36.6468 143.84L34.4086 143.84L34.4086 145.793L32.9164 145.793L32.9164 143.84L30.6782 143.84L30.6782 142.539L32.9164 142.539L32.9164 140.586Z" fill="white" fill-opacity="0.5"/>
<path d="M50.822 140.586L52.3141 140.586L52.3141 142.539L54.5523 142.539L54.5523 143.84L52.3141 143.84L52.3141 145.793L50.822 145.793L50.822 143.84L48.5837 143.84L48.5837 142.539L50.822 142.539L50.822 140.586Z" fill="white" fill-opacity="0.5"/>
<path d="M68.7277 140.586L70.2199 140.586L70.2199 142.539L72.4581 142.539L72.4581 143.84L70.2199 143.84L70.2199 145.793L68.7277 145.793L68.7277 143.84L66.4895 143.84L66.4895 142.539L68.7277 142.539L68.7277 140.586Z" fill="white" fill-opacity="0.5"/>
<path d="M86.6332 140.586L88.1254 140.586L88.1254 142.539L90.3636 142.539L90.3636 143.84L88.1254 143.84L88.1254 145.793L86.6332 145.793L86.6332 143.84L84.395 143.84L84.395 142.539L86.6332 142.539L86.6332 140.586Z" fill="white" fill-opacity="0.5"/>
<path d="M104.539 140.586L106.031 140.586L106.031 142.539L108.269 142.539L108.269 143.84L106.031 143.84L106.031 145.793L104.539 145.793L104.539 143.84L102.301 143.84L102.301 142.539L104.539 142.539L104.539 140.586Z" fill="white" fill-opacity="0.5"/>
<path d="M122.444 140.586L123.937 140.586L123.937 142.539L126.175 142.539L126.175 143.84L123.937 143.84L123.937 145.793L122.444 145.793L122.444 143.84L120.206 143.84L120.206 142.539L122.444 142.539L122.444 140.586Z" fill="white" fill-opacity="0.5"/>
<path d="M-2.89461 156.207L-1.40248 156.207L-1.40248 158.159L0.835724 158.159L0.835724 159.461L-1.40248 159.461L-1.40248 161.414L-2.89461 161.414L-2.89461 159.461L-5.13281 159.461L-5.13281 158.159L-2.89461 158.159L-2.89461 156.207Z" fill="white" fill-opacity="0.5"/>
<path d="M15.0109 156.207L16.503 156.207L16.503 158.159L18.7412 158.159L18.7412 159.461L16.503 159.461L16.503 161.414L15.0109 161.414L15.0109 159.461L12.7727 159.461L12.7727 158.159L15.0109 158.159L15.0109 156.207Z" fill="white" fill-opacity="0.5"/>
<path d="M32.9164 156.207L34.4086 156.207L34.4086 158.159L36.6468 158.159L36.6468 159.461L34.4086 159.461L34.4086 161.414L32.9164 161.414L32.9164 159.461L30.6782 159.461L30.6782 158.159L32.9164 158.159L32.9164 156.207Z" fill="white" fill-opacity="0.5"/>
<path d="M50.822 156.207L52.3141 156.207L52.3141 158.159L54.5523 158.159L54.5523 159.461L52.3141 159.461L52.3141 161.414L50.822 161.414L50.822 159.461L48.5837 159.461L48.5837 158.159L50.822 158.159L50.822 156.207Z" fill="white" fill-opacity="0.5"/>
<path d="M68.7277 156.207L70.2199 156.207L70.2199 158.159L72.4581 158.159L72.4581 159.461L70.2199 159.461L70.2199 161.414L68.7277 161.414L68.7277 159.461L66.4895 159.461L66.4895 158.159L68.7277 158.159L68.7277 156.207Z" fill="white" fill-opacity="0.5"/>
<path d="M86.6332 156.207L88.1254 156.207L88.1254 158.159L90.3636 158.159L90.3636 159.461L88.1254 159.461L88.1254 161.414L86.6332 161.414L86.6332 159.461L84.395 159.461L84.395 158.159L86.6332 158.159L86.6332 156.207Z" fill="white" fill-opacity="0.5"/>
<path d="M104.539 156.207L106.031 156.207L106.031 158.159L108.269 158.159L108.269 159.461L106.031 159.461L106.031 161.414L104.539 161.414L104.539 159.461L102.301 159.461L102.301 158.159L104.539 158.159L104.539 156.207Z" fill="white" fill-opacity="0.5"/>
<path d="M122.444 156.207L123.937 156.207L123.937 158.159L126.175 158.159L126.175 159.461L123.937 159.461L123.937 161.414L122.444 161.414L122.444 159.461L120.206 159.461L120.206 158.159L122.444 158.159L122.444 156.207Z" fill="white" fill-opacity="0.5"/>
<path d="M-2.89461 171.827L-1.40248 171.827L-1.40248 173.78L0.835724 173.78L0.835724 175.082L-1.40248 175.082L-1.40248 177.034L-2.89461 177.034L-2.89461 175.082L-5.13281 175.082L-5.13281 173.78L-2.89461 173.78L-2.89461 171.827Z" fill="white" fill-opacity="0.5"/>
<path d="M15.0109 171.827L16.503 171.827L16.503 173.78L18.7412 173.78L18.7412 175.082L16.503 175.082L16.503 177.034L15.0109 177.034L15.0109 175.082L12.7727 175.082L12.7727 173.78L15.0109 173.78L15.0109 171.827Z" fill="white" fill-opacity="0.5"/>
<path d="M32.9164 171.827L34.4086 171.827L34.4086 173.78L36.6468 173.78L36.6468 175.082L34.4086 175.082L34.4086 177.034L32.9164 177.034L32.9164 175.082L30.6782 175.082L30.6782 173.78L32.9164 173.78L32.9164 171.827Z" fill="white" fill-opacity="0.5"/>
<path d="M50.822 171.827L52.3141 171.827L52.3141 173.78L54.5523 173.78L54.5523 175.082L52.3141 175.082L52.3141 177.034L50.822 177.034L50.822 175.082L48.5837 175.082L48.5837 173.78L50.822 173.78L50.822 171.827Z" fill="white" fill-opacity="0.5"/>
<path d="M68.7277 171.827L70.2199 171.827L70.2199 173.78L72.4581 173.78L72.4581 175.082L70.2199 175.082L70.2199 177.034L68.7277 177.034L68.7277 175.082L66.4895 175.082L66.4895 173.78L68.7277 173.78L68.7277 171.827Z" fill="white" fill-opacity="0.5"/>
<path d="M86.6332 171.827L88.1254 171.827L88.1254 173.78L90.3636 173.78L90.3636 175.082L88.1254 175.082L88.1254 177.034L86.6332 177.034L86.6332 175.082L84.395 175.082L84.395 173.78L86.6332 173.78L86.6332 171.827Z" fill="white" fill-opacity="0.5"/>
<path d="M104.539 171.827L106.031 171.827L106.031 173.78L108.269 173.78L108.269 175.082L106.031 175.082L106.031 177.034L104.539 177.034L104.539 175.082L102.301 175.082L102.301 173.78L104.539 173.78L104.539 171.827Z" fill="white" fill-opacity="0.5"/>
<path d="M122.444 171.827L123.937 171.827L123.937 173.78L126.175 173.78L126.175 175.082L123.937 175.082L123.937 177.034L122.444 177.034L122.444 175.082L120.206 175.082L120.206 173.78L122.444 173.78L122.444 171.827Z" fill="white" fill-opacity="0.5"/>
<path d="M-2.89461 187.448L-1.40248 187.448L-1.40248 189.401L0.835724 189.401L0.835724 190.702L-1.40248 190.702L-1.40248 192.655L-2.89461 192.655L-2.89461 190.702L-5.13281 190.702L-5.13281 189.401L-2.89461 189.401L-2.89461 187.448Z" fill="white" fill-opacity="0.5"/>
<path d="M15.0109 187.448L16.503 187.448L16.503 189.401L18.7412 189.401L18.7412 190.702L16.503 190.702L16.503 192.655L15.0109 192.655L15.0109 190.702L12.7727 190.702L12.7727 189.401L15.0109 189.401L15.0109 187.448Z" fill="white" fill-opacity="0.5"/>
<path d="M32.9164 187.448L34.4086 187.448L34.4086 189.401L36.6468 189.401L36.6468 190.702L34.4086 190.702L34.4086 192.655L32.9164 192.655L32.9164 190.702L30.6782 190.702L30.6782 189.401L32.9164 189.401L32.9164 187.448Z" fill="white" fill-opacity="0.5"/>
<path d="M50.822 187.448L52.3141 187.448L52.3141 189.401L54.5523 189.401L54.5523 190.702L52.3141 190.702L52.3141 192.655L50.822 192.655L50.822 190.702L48.5837 190.702L48.5837 189.401L50.822 189.401L50.822 187.448Z" fill="white" fill-opacity="0.5"/>
<path d="M68.7277 187.448L70.2199 187.448L70.2199 189.401L72.4581 189.401L72.4581 190.702L70.2199 190.702L70.2199 192.655L68.7277 192.655L68.7277 190.702L66.4895 190.702L66.4895 189.401L68.7277 189.401L68.7277 187.448Z" fill="white" fill-opacity="0.5"/>
<path d="M86.6332 187.448L88.1254 187.448L88.1254 189.401L90.3636 189.401L90.3636 190.702L88.1254 190.702L88.1254 192.655L86.6332 192.655L86.6332 190.702L84.395 190.702L84.395 189.401L86.6332 189.401L86.6332 187.448Z" fill="white" fill-opacity="0.5"/>
<path d="M104.539 187.448L106.031 187.448L106.031 189.401L108.269 189.401L108.269 190.702L106.031 190.702L106.031 192.655L104.539 192.655L104.539 190.702L102.301 190.702L102.301 189.401L104.539 189.401L104.539 187.448Z" fill="white" fill-opacity="0.5"/>
<path d="M122.444 187.448L123.937 187.448L123.937 189.401L126.175 189.401L126.175 190.702L123.937 190.702L123.937 192.655L122.444 192.655L122.444 190.702L120.206 190.702L120.206 189.401L122.444 189.401L122.444 187.448Z" fill="white" fill-opacity="0.5"/>
<path d="M-2.89461 203.069L-1.40248 203.069L-1.40248 205.022L0.835724 205.022L0.835724 206.324L-1.40248 206.324L-1.40248 208.276L-2.89461 208.276L-2.89461 206.324L-5.13281 206.324L-5.13281 205.022L-2.89461 205.022L-2.89461 203.069Z" fill="white" fill-opacity="0.5"/>
<path d="M15.0109 203.069L16.503 203.069L16.503 205.022L18.7412 205.022L18.7412 206.324L16.503 206.324L16.503 208.276L15.0109 208.276L15.0109 206.324L12.7727 206.324L12.7727 205.022L15.0109 205.022L15.0109 203.069Z" fill="white" fill-opacity="0.5"/>
<path d="M32.9164 203.069L34.4086 203.069L34.4086 205.022L36.6468 205.022L36.6468 206.324L34.4086 206.324L34.4086 208.276L32.9164 208.276L32.9164 206.324L30.6782 206.324L30.6782 205.022L32.9164 205.022L32.9164 203.069Z" fill="white" fill-opacity="0.5"/>
<path d="M50.822 203.069L52.3141 203.069L52.3141 205.022L54.5523 205.022L54.5523 206.324L52.3141 206.324L52.3141 208.276L50.822 208.276L50.822 206.324L48.5837 206.324L48.5837 205.022L50.822 205.022L50.822 203.069Z" fill="white" fill-opacity="0.5"/>
<path d="M68.7277 203.069L70.2199 203.069L70.2199 205.022L72.4581 205.022L72.4581 206.324L70.2199 206.324L70.2199 208.276L68.7277 208.276L68.7277 206.324L66.4895 206.324L66.4895 205.022L68.7277 205.022L68.7277 203.069Z" fill="white" fill-opacity="0.5"/>
<path d="M86.6332 203.069L88.1254 203.069L88.1254 205.022L90.3636 205.022L90.3636 206.324L88.1254 206.324L88.1254 208.276L86.6332 208.276L86.6332 206.324L84.395 206.324L84.395 205.022L86.6332 205.022L86.6332 203.069Z" fill="white" fill-opacity="0.5"/>
<path d="M104.539 203.069L106.031 203.069L106.031 205.022L108.269 205.022L108.269 206.324L106.031 206.324L106.031 208.276L104.539 208.276L104.539 206.324L102.301 206.324L102.301 205.022L104.539 205.022L104.539 203.069Z" fill="white" fill-opacity="0.5"/>
<path d="M122.444 203.069L123.937 203.069L123.937 205.022L126.175 205.022L126.175 206.324L123.937 206.324L123.937 208.276L122.444 208.276L122.444 206.324L120.206 206.324L120.206 205.022L122.444 205.022L122.444 203.069Z" fill="white" fill-opacity="0.5"/>
<path d="M-2.89461 218.69L-1.40248 218.69L-1.40248 220.642L0.835724 220.642L0.835724 221.944L-1.40248 221.944L-1.40248 223.896L-2.89461 223.896L-2.89461 221.944L-5.13281 221.944L-5.13281 220.642L-2.89461 220.642L-2.89461 218.69Z" fill="white" fill-opacity="0.5"/>
<path d="M15.0109 218.69L16.503 218.69L16.503 220.642L18.7412 220.642L18.7412 221.944L16.503 221.944L16.503 223.896L15.0109 223.896L15.0109 221.944L12.7727 221.944L12.7727 220.642L15.0109 220.642L15.0109 218.69Z" fill="white" fill-opacity="0.5"/>
<path d="M32.9164 218.69L34.4086 218.69L34.4086 220.642L36.6468 220.642L36.6468 221.944L34.4086 221.944L34.4086 223.896L32.9164 223.896L32.9164 221.944L30.6782 221.944L30.6782 220.642L32.9164 220.642L32.9164 218.69Z" fill="white" fill-opacity="0.5"/>
<path d="M50.822 218.69L52.3141 218.69L52.3141 220.642L54.5523 220.642L54.5523 221.944L52.3141 221.944L52.3141 223.896L50.822 223.896L50.822 221.944L48.5837 221.944L48.5837 220.642L50.822 220.642L50.822 218.69Z" fill="white" fill-opacity="0.5"/>
<path d="M68.7277 218.69L70.2199 218.69L70.2199 220.642L72.4581 220.642L72.4581 221.944L70.2199 221.944L70.2199 223.896L68.7277 223.896L68.7277 221.944L66.4895 221.944L66.4895 220.642L68.7277 220.642L68.7277 218.69Z" fill="white" fill-opacity="0.5"/>
<path d="M86.6332 218.69L88.1254 218.69L88.1254 220.642L90.3636 220.642L90.3636 221.944L88.1254 221.944L88.1254 223.896L86.6332 223.896L86.6332 221.944L84.395 221.944L84.395 220.642L86.6332 220.642L86.6332 218.69Z" fill="white" fill-opacity="0.5"/>
<path d="M104.539 218.69L106.031 218.69L106.031 220.642L108.269 220.642L108.269 221.944L106.031 221.944L106.031 223.896L104.539 223.896L104.539 221.944L102.301 221.944L102.301 220.642L104.539 220.642L104.539 218.69Z" fill="white" fill-opacity="0.5"/>
<path d="M122.444 218.69L123.937 218.69L123.937 220.642L126.175 220.642L126.175 221.944L123.937 221.944L123.937 223.896L122.444 223.896L122.444 221.944L120.206 221.944L120.206 220.642L122.444 220.642L122.444 218.69Z" fill="white" fill-opacity="0.5"/>
<path d="M-2.89461 234.31L-1.40248 234.31L-1.40248 236.263L0.835724 236.263L0.835724 237.564L-1.40248 237.564L-1.40248 239.517L-2.89461 239.517L-2.89461 237.564L-5.13281 237.564L-5.13281 236.263L-2.89461 236.263L-2.89461 234.31Z" fill="white" fill-opacity="0.5"/>
<path d="M15.0109 234.31L16.503 234.31L16.503 236.263L18.7412 236.263L18.7412 237.564L16.503 237.564L16.503 239.517L15.0109 239.517L15.0109 237.564L12.7727 237.564L12.7727 236.263L15.0109 236.263L15.0109 234.31Z" fill="white" fill-opacity="0.5"/>
<path d="M32.9164 234.31L34.4086 234.31L34.4086 236.263L36.6468 236.263L36.6468 237.564L34.4086 237.564L34.4086 239.517L32.9164 239.517L32.9164 237.564L30.6782 237.564L30.6782 236.263L32.9164 236.263L32.9164 234.31Z" fill="white" fill-opacity="0.5"/>
<path d="M50.822 234.31L52.3141 234.31L52.3141 236.263L54.5523 236.263L54.5523 237.564L52.3141 237.564L52.3141 239.517L50.822 239.517L50.822 237.564L48.5837 237.564L48.5837 236.263L50.822 236.263L50.822 234.31Z" fill="white" fill-opacity="0.5"/>
<path d="M68.7277 234.31L70.2199 234.31L70.2199 236.263L72.4581 236.263L72.4581 237.564L70.2199 237.564L70.2199 239.517L68.7277 239.517L68.7277 237.564L66.4895 237.564L66.4895 236.263L68.7277 236.263L68.7277 234.31Z" fill="white" fill-opacity="0.5"/>
<path d="M86.6332 234.31L88.1254 234.31L88.1254 236.263L90.3636 236.263L90.3636 237.564L88.1254 237.564L88.1254 239.517L86.6332 239.517L86.6332 237.564L84.395 237.564L84.395 236.263L86.6332 236.263L86.6332 234.31Z" fill="white" fill-opacity="0.5"/>
<path d="M104.539 234.31L106.031 234.31L106.031 236.263L108.269 236.263L108.269 237.564L106.031 237.564L106.031 239.517L104.539 239.517L104.539 237.564L102.301 237.564L102.301 236.263L104.539 236.263L104.539 234.31Z" fill="white" fill-opacity="0.5"/>
<path d="M122.444 234.31L123.937 234.31L123.937 236.263L126.175 236.263L126.175 237.564L123.937 237.564L123.937 239.517L122.444 239.517L122.444 237.564L120.206 237.564L120.206 236.263L122.444 236.263L122.444 234.31Z" fill="white" fill-opacity="0.5"/>
<path d="M-2.89461 249.931L-1.40248 249.931L-1.40248 251.884L0.835724 251.884L0.835724 253.185L-1.40248 253.185L-1.40248 255.138L-2.89461 255.138L-2.89461 253.185L-5.13281 253.185L-5.13281 251.884L-2.89461 251.884L-2.89461 249.931Z" fill="white" fill-opacity="0.5"/>
<path d="M15.0109 249.931L16.503 249.931L16.503 251.884L18.7412 251.884L18.7412 253.185L16.503 253.185L16.503 255.138L15.0109 255.138L15.0109 253.185L12.7727 253.185L12.7727 251.884L15.0109 251.884L15.0109 249.931Z" fill="white" fill-opacity="0.5"/>
<path d="M32.9164 249.931L34.4086 249.931L34.4086 251.884L36.6468 251.884L36.6468 253.185L34.4086 253.185L34.4086 255.138L32.9164 255.138L32.9164 253.185L30.6782 253.185L30.6782 251.884L32.9164 251.884L32.9164 249.931Z" fill="white" fill-opacity="0.5"/>
<path d="M50.822 249.931L52.3141 249.931L52.3141 251.884L54.5523 251.884L54.5523 253.185L52.3141 253.185L52.3141 255.138L50.822 255.138L50.822 253.185L48.5837 253.185L48.5837 251.884L50.822 251.884L50.822 249.931Z" fill="white" fill-opacity="0.5"/>
<path d="M68.7277 249.931L70.2199 249.931L70.2199 251.884L72.4581 251.884L72.4581 253.185L70.2199 253.185L70.2199 255.138L68.7277 255.138L68.7277 253.185L66.4895 253.185L66.4895 251.884L68.7277 251.884L68.7277 249.931Z" fill="white" fill-opacity="0.5"/>
<path d="M86.6332 249.931L88.1254 249.931L88.1254 251.884L90.3636 251.884L90.3636 253.185L88.1254 253.185L88.1254 255.138L86.6332 255.138L86.6332 253.185L84.395 253.185L84.395 251.884L86.6332 251.884L86.6332 249.931Z" fill="white" fill-opacity="0.5"/>
<path d="M104.539 249.931L106.031 249.931L106.031 251.884L108.269 251.884L108.269 253.185L106.031 253.185L106.031 255.138L104.539 255.138L104.539 253.185L102.301 253.185L102.301 251.884L104.539 251.884L104.539 249.931Z" fill="white" fill-opacity="0.5"/>
<path d="M122.444 249.931L123.937 249.931L123.937 251.884L126.175 251.884L126.175 253.185L123.937 253.185L123.937 255.138L122.444 255.138L122.444 253.185L120.206 253.185L120.206 251.884L122.444 251.884L122.444 249.931Z" fill="white" fill-opacity="0.5"/>
<path d="M-2.89461 265.552L-1.40248 265.552L-1.40248 267.504L0.835724 267.504L0.835724 268.806L-1.40248 268.806L-1.40248 270.759L-2.89461 270.759L-2.89461 268.806L-5.13281 268.806L-5.13281 267.504L-2.89461 267.504L-2.89461 265.552Z" fill="white" fill-opacity="0.5"/>
<path d="M15.0109 265.552L16.503 265.552L16.503 267.504L18.7412 267.504L18.7412 268.806L16.503 268.806L16.503 270.759L15.0109 270.759L15.0109 268.806L12.7727 268.806L12.7727 267.504L15.0109 267.504L15.0109 265.552Z" fill="white" fill-opacity="0.5"/>
<path d="M32.9164 265.552L34.4086 265.552L34.4086 267.504L36.6468 267.504L36.6468 268.806L34.4086 268.806L34.4086 270.759L32.9164 270.759L32.9164 268.806L30.6782 268.806L30.6782 267.504L32.9164 267.504L32.9164 265.552Z" fill="white" fill-opacity="0.5"/>
<path d="M50.822 265.552L52.3141 265.552L52.3141 267.504L54.5523 267.504L54.5523 268.806L52.3141 268.806L52.3141 270.759L50.822 270.759L50.822 268.806L48.5837 268.806L48.5837 267.504L50.822 267.504L50.822 265.552Z" fill="white" fill-opacity="0.5"/>
<path d="M68.7277 265.552L70.2199 265.552L70.2199 267.504L72.4581 267.504L72.4581 268.806L70.2199 268.806L70.2199 270.759L68.7277 270.759L68.7277 268.806L66.4895 268.806L66.4895 267.504L68.7277 267.504L68.7277 265.552Z" fill="white" fill-opacity="0.5"/>
<path d="M86.6332 265.552L88.1254 265.552L88.1254 267.504L90.3636 267.504L90.3636 268.806L88.1254 268.806L88.1254 270.759L86.6332 270.759L86.6332 268.806L84.395 268.806L84.395 267.504L86.6332 267.504L86.6332 265.552Z" fill="white" fill-opacity="0.5"/>
<path d="M104.539 265.552L106.031 265.552L106.031 267.504L108.269 267.504L108.269 268.806L106.031 268.806L106.031 270.759L104.539 270.759L104.539 268.806L102.301 268.806L102.301 267.504L104.539 267.504L104.539 265.552Z" fill="white" fill-opacity="0.5"/>
<path d="M122.444 265.552L123.937 265.552L123.937 267.504L126.175 267.504L126.175 268.806L123.937 268.806L123.937 270.759L122.444 270.759L122.444 268.806L120.206 268.806L120.206 267.504L122.444 267.504L122.444 265.552Z" fill="white" fill-opacity="0.5"/>
<path d="M-2.89461 281.172L-1.40248 281.172L-1.40248 283.125L0.835724 283.125L0.835724 284.427L-1.40248 284.427L-1.40248 286.379L-2.89461 286.379L-2.89461 284.427L-5.13281 284.427L-5.13281 283.125L-2.89461 283.125L-2.89461 281.172Z" fill="white" fill-opacity="0.5"/>
<path d="M15.0109 281.172L16.503 281.172L16.503 283.125L18.7412 283.125L18.7412 284.427L16.503 284.427L16.503 286.379L15.0109 286.379L15.0109 284.427L12.7727 284.427L12.7727 283.125L15.0109 283.125L15.0109 281.172Z" fill="white" fill-opacity="0.5"/>
<path d="M32.9164 281.172L34.4086 281.172L34.4086 283.125L36.6468 283.125L36.6468 284.427L34.4086 284.427L34.4086 286.379L32.9164 286.379L32.9164 284.427L30.6782 284.427L30.6782 283.125L32.9164 283.125L32.9164 281.172Z" fill="white" fill-opacity="0.5"/>
<path d="M50.822 281.172L52.3141 281.172L52.3141 283.125L54.5523 283.125L54.5523 284.427L52.3141 284.427L52.3141 286.379L50.822 286.379L50.822 284.427L48.5837 284.427L48.5837 283.125L50.822 283.125L50.822 281.172Z" fill="white" fill-opacity="0.5"/>
<path d="M68.7277 281.172L70.2199 281.172L70.2199 283.125L72.4581 283.125L72.4581 284.427L70.2199 284.427L70.2199 286.379L68.7277 286.379L68.7277 284.427L66.4895 284.427L66.4895 283.125L68.7277 283.125L68.7277 281.172Z" fill="white" fill-opacity="0.5"/>
<path d="M86.6332 281.172L88.1254 281.172L88.1254 283.125L90.3636 283.125L90.3636 284.427L88.1254 284.427L88.1254 286.379L86.6332 286.379L86.6332 284.427L84.395 284.427L84.395 283.125L86.6332 283.125L86.6332 281.172Z" fill="white" fill-opacity="0.5"/>
<path d="M104.539 281.172L106.031 281.172L106.031 283.125L108.269 283.125L108.269 284.427L106.031 284.427L106.031 286.379L104.539 286.379L104.539 284.427L102.301 284.427L102.301 283.125L104.539 283.125L104.539 281.172Z" fill="white" fill-opacity="0.5"/>
<path d="M122.444 281.172L123.937 281.172L123.937 283.125L126.175 283.125L126.175 284.427L123.937 284.427L123.937 286.379L122.444 286.379L122.444 284.427L120.206 284.427L120.206 283.125L122.444 283.125L122.444 281.172Z" fill="white" fill-opacity="0.5"/>
<path d="M-2.89461 296.793L-1.40248 296.793L-1.40248 298.746L0.835724 298.746L0.835724 300.047L-1.40248 300.047L-1.40248 302L-2.89461 302L-2.89461 300.047L-5.13281 300.047L-5.13281 298.746L-2.89461 298.746L-2.89461 296.793Z" fill="white" fill-opacity="0.5"/>
<path d="M15.0109 296.793L16.503 296.793L16.503 298.746L18.7412 298.746L18.7412 300.047L16.503 300.047L16.503 302L15.0109 302L15.0109 300.047L12.7727 300.047L12.7727 298.746L15.0109 298.746L15.0109 296.793Z" fill="white" fill-opacity="0.5"/>
<path d="M32.9164 296.793L34.4086 296.793L34.4086 298.746L36.6468 298.746L36.6468 300.047L34.4086 300.047L34.4086 302L32.9164 302L32.9164 300.047L30.6782 300.047L30.6782 298.746L32.9164 298.746L32.9164 296.793Z" fill="white" fill-opacity="0.5"/>
<path d="M50.8222 296.793L52.3144 296.793L52.3144 298.746L54.5526 298.746L54.5526 300.047L52.3144 300.047L52.3144 302L50.8222 302L50.8222 300.047L48.584 300.047L48.584 298.746L50.8222 298.746L50.8222 296.793Z" fill="white" fill-opacity="0.5"/>
<path d="M68.7277 296.793L70.2199 296.793L70.2199 298.746L72.4581 298.746L72.4581 300.047L70.2199 300.047L70.2199 302L68.7277 302L68.7277 300.047L66.4895 300.047L66.4895 298.746L68.7277 298.746L68.7277 296.793Z" fill="white" fill-opacity="0.5"/>
<path d="M86.6332 296.793L88.1254 296.793L88.1254 298.746L90.3636 298.746L90.3636 300.047L88.1254 300.047L88.1254 302L86.6332 302L86.6332 300.047L84.395 300.047L84.395 298.746L86.6332 298.746L86.6332 296.793Z" fill="white" fill-opacity="0.5"/>
<path d="M104.539 296.793L106.031 296.793L106.031 298.746L108.269 298.746L108.269 300.047L106.031 300.047L106.031 302L104.539 302L104.539 300.047L102.301 300.047L102.301 298.746L104.539 298.746L104.539 296.793Z" fill="white" fill-opacity="0.5"/>
<path d="M122.444 296.793L123.937 296.793L123.937 298.746L126.175 298.746L126.175 300.047L123.937 300.047L123.937 302L122.444 302L122.444 300.047L120.206 300.047L120.206 298.746L122.444 298.746L122.444 296.793Z" fill="white" fill-opacity="0.5"/>
</g>
</svg>
