<svg width="138" height="138" viewBox="0 0 138 138" fill="none" xmlns="http://www.w3.org/2000/svg">
<g filter="url(#filter0_d_2_2835)">
<circle cx="69" cy="61" r="45" fill="#1A1452"/>
</g>
<path d="M64 75.1647H74" stroke="#DB52F7" stroke-width="2" stroke-linecap="round" stroke-linejoin="round"/>
<path d="M76.8833 61.7035L77.6626 62.3301L76.8833 61.7035ZM61.1167 61.7035L60.3374 62.3301H60.3374L61.1167 61.7035ZM64 67.8808H65H64ZM60 55.7216C60 50.9312 64.0026 47 69 47V45C62.9517 45 58 49.7738 58 55.7216H60ZM69 47C73.9974 47 78 50.9312 78 55.7216H80C80 49.7738 75.0483 45 69 45V47ZM78 55.7216C78 57.7389 77.2943 59.5965 76.1039 61.0769L77.6626 62.3301C79.1249 60.5115 80 58.2161 80 55.7216H78ZM61.8961 61.0769C60.7057 59.5965 60 57.7389 60 55.7216H58C58 58.2161 58.8751 60.5115 60.3374 62.3301L61.8961 61.0769ZM72.3333 69.3042H65.6667V71.3042H72.3333V69.3042ZM65.6667 69.3042C65.2717 69.3042 65 69.0001 65 68.684H63C63 70.1575 64.2207 71.3042 65.6667 71.3042V69.3042ZM73 68.684C73 69.0001 72.7283 69.3042 72.3333 69.3042V71.3042C73.7793 71.3042 75 70.1575 75 68.684H73ZM65 68.684V67.8808H63V68.684H65ZM73 67.8808V68.684H75V67.8808H73ZM60.3374 62.3301C61.8127 64.165 63 65.9561 63 67.8808H65C65 65.1784 63.3519 62.8875 61.8961 61.0769L60.3374 62.3301ZM76.1039 61.0769C74.6481 62.8875 73 65.1784 73 67.8808H75C75 65.9561 76.1873 64.165 77.6626 62.3301L76.1039 61.0769Z" fill="#DB52F7"/>
<defs>
<filter id="filter0_d_2_2835" x="0" y="0" width="138" height="138" filterUnits="userSpaceOnUse" color-interpolation-filters="sRGB">
<feFlood flood-opacity="0" result="BackgroundImageFix"/>
<feColorMatrix in="SourceAlpha" type="matrix" values="0 0 0 0 0 0 0 0 0 0 0 0 0 0 0 0 0 0 127 0" result="hardAlpha"/>
<feOffset dy="8"/>
<feGaussianBlur stdDeviation="12"/>
<feColorMatrix type="matrix" values="0 0 0 0 0.464587 0 0 0 0 0.209553 0 0 0 0 0.620898 0 0 0 0.1 0"/>
<feBlend mode="normal" in2="BackgroundImageFix" result="effect1_dropShadow_2_2835"/>
<feBlend mode="normal" in="SourceGraphic" in2="effect1_dropShadow_2_2835" result="shape"/>
</filter>
</defs>
</svg>
