<svg width="138" height="138" viewBox="0 0 138 138" fill="none" xmlns="http://www.w3.org/2000/svg">
<g filter="url(#filter0_d_2_2829)">
<circle cx="69" cy="61" r="45" fill="#1A1452"/>
</g>
<path d="M74.2222 52.2127C74.2222 52.705 74.1353 53.1777 73.9756 53.6169L78.5556 53.6169C79.3533 53.6169 80 54.2456 80 55.0211V59.4735C79.5482 59.3183 79.062 59.2338 78.5556 59.2338C76.1623 59.2338 74.2222 61.1199 74.2222 63.4465C74.2222 65.7731 76.1623 67.6592 78.5556 67.6592C79.062 67.6592 79.5482 67.5747 80 67.4194V71.8718C80 72.6474 79.3533 73.2761 78.5556 73.2761H61.2222C60.4245 73.2761 59.7778 72.6474 59.7778 71.8718V67.4194C59.326 67.5747 58.8398 67.6592 58.3333 67.6592C55.9401 67.6592 54 65.7731 54 63.4465C54 61.1199 55.9401 59.2338 58.3333 59.2338C58.8398 59.2338 59.326 59.3183 59.7778 59.4735V55.0211C59.7778 54.2456 60.4245 53.6169 61.2222 53.6169L65.8021 53.6169C65.6424 53.1777 65.5556 52.705 65.5556 52.2127C65.5556 49.8861 67.4957 48 69.8889 48C72.2821 48 74.2222 49.8861 74.2222 52.2127Z" stroke="#52CFF7" stroke-width="2" stroke-linecap="round" stroke-linejoin="round"/>
<defs>
<filter id="filter0_d_2_2829" x="0" y="0" width="138" height="138" filterUnits="userSpaceOnUse" color-interpolation-filters="sRGB">
<feFlood flood-opacity="0" result="BackgroundImageFix"/>
<feColorMatrix in="SourceAlpha" type="matrix" values="0 0 0 0 0 0 0 0 0 0 0 0 0 0 0 0 0 0 127 0" result="hardAlpha"/>
<feOffset dy="8"/>
<feGaussianBlur stdDeviation="12"/>
<feColorMatrix type="matrix" values="0 0 0 0 0.209553 0 0 0 0 0.620898 0 0 0 0 0.620898 0 0 0 0.05 0"/>
<feBlend mode="normal" in2="BackgroundImageFix" result="effect1_dropShadow_2_2829"/>
<feBlend mode="normal" in="SourceGraphic" in2="effect1_dropShadow_2_2829" result="shape"/>
</filter>
</defs>
</svg>
