<svg width="138" height="138" viewBox="0 0 138 138" fill="none" xmlns="http://www.w3.org/2000/svg">
<g filter="url(#filter0_d_2_2820)">
<circle cx="69" cy="61" r="45" fill="#1A1452"/>
</g>
<path d="M69 73.2761C76.1797 73.2761 82 67.6178 82 60.638C82 53.6582 76.1797 48 69 48C61.8203 48 56 53.6582 56 60.638C56 67.6178 61.8203 73.2761 69 73.2761Z" stroke="#52F7E3" stroke-width="1.8" stroke-miterlimit="10" stroke-linecap="round" stroke-linejoin="round"/>
<path d="M56 60.638H82" stroke="#52F7E3" stroke-width="1.8" stroke-linecap="round" stroke-linejoin="round"/>
<path d="M69.0001 73.2761C71.3933 73.2761 73.3334 67.6178 73.3334 60.638C73.3334 53.6582 71.3933 48 69.0001 48C66.6068 48 64.6667 53.6582 64.6667 60.638C64.6667 67.6178 66.6068 73.2761 69.0001 73.2761Z" stroke="#52F7E3" stroke-width="1.8" stroke-miterlimit="10" stroke-linecap="round" stroke-linejoin="round"/>
<defs>
<filter id="filter0_d_2_2820" x="0" y="1.52588e-05" width="138" height="138" filterUnits="userSpaceOnUse" color-interpolation-filters="sRGB">
<feFlood flood-opacity="0" result="BackgroundImageFix"/>
<feColorMatrix in="SourceAlpha" type="matrix" values="0 0 0 0 0 0 0 0 0 0 0 0 0 0 0 0 0 0 127 0" result="hardAlpha"/>
<feOffset dy="8"/>
<feGaussianBlur stdDeviation="12"/>
<feColorMatrix type="matrix" values="0 0 0 0 0.209553 0 0 0 0 0.620898 0 0 0 0 0.250688 0 0 0 0.075 0"/>
<feBlend mode="normal" in2="BackgroundImageFix" result="effect1_dropShadow_2_2820"/>
<feBlend mode="normal" in="SourceGraphic" in2="effect1_dropShadow_2_2820" result="shape"/>
</filter>
</defs>
</svg>
